<svg id="wave" style="transform:rotate(0deg); transition: 0.3s" viewBox="0 0 1440 490" version="1.1" xmlns="http://www.w3.org/2000/svg"><defs><linearGradient id="sw-gradient-0" x1="0" x2="0" y1="1" y2="0"><stop stop-color="rgb(117, 93, 85)" offset="0%"></stop><stop stop-color="rgb(88, 62, 73)" offset="100%"></stop></linearGradient></defs><path style="transform:translate(0, 0px); opacity:1" fill="url(#sw-gradient-0)" d="M0,294L20,318.5C40,343,80,392,120,392C160,392,200,343,240,294C280,245,320,196,360,171.5C400,147,440,147,480,171.5C520,196,560,245,600,294C640,343,680,392,720,408.3C760,425,800,408,840,392C880,376,920,359,960,351.2C1000,343,1040,343,1080,285.8C1120,229,1160,114,1200,114.3C1240,114,1280,229,1320,294C1360,359,1400,376,1440,326.7C1480,278,1520,163,1560,114.3C1600,65,1640,82,1680,138.8C1720,196,1760,294,1800,334.8C1840,376,1880,359,1920,367.5C1960,376,2000,408,2040,408.3C2080,408,2120,376,2160,351.2C2200,327,2240,310,2280,261.3C2320,212,2360,131,2400,81.7C2440,33,2480,16,2520,81.7C2560,147,2600,294,2640,359.3C2680,425,2720,408,2760,408.3C2800,408,2840,425,2860,432.8L2880,441L2880,490L2860,490C2840,490,2800,490,2760,490C2720,490,2680,490,2640,490C2600,490,2560,490,2520,490C2480,490,2440,490,2400,490C2360,490,2320,490,2280,490C2240,490,2200,490,2160,490C2120,490,2080,490,2040,490C2000,490,1960,490,1920,490C1880,490,1840,490,1800,490C1760,490,1720,490,1680,490C1640,490,1600,490,1560,490C1520,490,1480,490,1440,490C1400,490,1360,490,1320,490C1280,490,1240,490,1200,490C1160,490,1120,490,1080,490C1040,490,1000,490,960,490C920,490,880,490,840,490C800,490,760,490,720,490C680,490,640,490,600,490C560,490,520,490,480,490C440,490,400,490,360,490C320,490,280,490,240,490C200,490,160,490,120,490C80,490,40,490,20,490L0,490Z"></path><defs><linearGradient id="sw-gradient-1" x1="0" x2="0" y1="1" y2="0"><stop stop-color="rgb(104, 91, 87)" offset="0%"></stop><stop stop-color="rgb(172, 158, 130)" offset="100%"></stop></linearGradient></defs><path style="transform:translate(0, 50px); opacity:0.9" fill="url(#sw-gradient-1)" d="M0,343L20,318.5C40,294,80,245,120,245C160,245,200,294,240,302.2C280,310,320,278,360,285.8C400,294,440,343,480,343C520,343,560,294,600,302.2C640,310,680,376,720,351.2C760,327,800,212,840,147C880,82,920,65,960,49C1000,33,1040,16,1080,57.2C1120,98,1160,196,1200,245C1240,294,1280,294,1320,277.7C1360,261,1400,229,1440,228.7C1480,229,1520,261,1560,253.2C1600,245,1640,196,1680,220.5C1720,245,1760,343,1800,334.8C1840,327,1880,212,1920,138.8C1960,65,2000,33,2040,81.7C2080,131,2120,261,2160,285.8C2200,310,2240,229,2280,228.7C2320,229,2360,310,2400,326.7C2440,343,2480,294,2520,302.2C2560,310,2600,376,2640,334.8C2680,294,2720,147,2760,73.5C2800,0,2840,0,2860,0L2880,0L2880,490L2860,490C2840,490,2800,490,2760,490C2720,490,2680,490,2640,490C2600,490,2560,490,2520,490C2480,490,2440,490,2400,490C2360,490,2320,490,2280,490C2240,490,2200,490,2160,490C2120,490,2080,490,2040,490C2000,490,1960,490,1920,490C1880,490,1840,490,1800,490C1760,490,1720,490,1680,490C1640,490,1600,490,1560,490C1520,490,1480,490,1440,490C1400,490,1360,490,1320,490C1280,490,1240,490,1200,490C1160,490,1120,490,1080,490C1040,490,1000,490,960,490C920,490,880,490,840,490C800,490,760,490,720,490C680,490,640,490,600,490C560,490,520,490,480,490C440,490,400,490,360,490C320,490,280,490,240,490C200,490,160,490,120,490C80,490,40,490,20,490L0,490Z"></path><defs><linearGradient id="sw-gradient-2" x1="0" x2="0" y1="1" y2="0"><stop stop-color="rgb(96, 88, 116)" offset="0%"></stop><stop stop-color="rgb(90, 81, 60)" offset="100%"></stop></linearGradient></defs><path style="transform:translate(0, 100px); opacity:0.8" fill="url(#sw-gradient-2)" d="M0,98L20,81.7C40,65,80,33,120,40.8C160,49,200,98,240,147C280,196,320,245,360,277.7C400,310,440,327,480,326.7C520,327,560,310,600,310.3C640,310,680,327,720,326.7C760,327,800,310,840,277.7C880,245,920,196,960,212.3C1000,229,1040,310,1080,285.8C1120,261,1160,131,1200,81.7C1240,33,1280,65,1320,138.8C1360,212,1400,327,1440,383.8C1480,441,1520,441,1560,408.3C1600,376,1640,310,1680,269.5C1720,229,1760,212,1800,179.7C1840,147,1880,98,1920,130.7C1960,163,2000,278,2040,310.3C2080,343,2120,294,2160,245C2200,196,2240,147,2280,122.5C2320,98,2360,98,2400,130.7C2440,163,2480,229,2520,228.7C2560,229,2600,163,2640,171.5C2680,180,2720,261,2760,261.3C2800,261,2840,180,2860,138.8L2880,98L2880,490L2860,490C2840,490,2800,490,2760,490C2720,490,2680,490,2640,490C2600,490,2560,490,2520,490C2480,490,2440,490,2400,490C2360,490,2320,490,2280,490C2240,490,2200,490,2160,490C2120,490,2080,490,2040,490C2000,490,1960,490,1920,490C1880,490,1840,490,1800,490C1760,490,1720,490,1680,490C1640,490,1600,490,1560,490C1520,490,1480,490,1440,490C1400,490,1360,490,1320,490C1280,490,1240,490,1200,490C1160,490,1120,490,1080,490C1040,490,1000,490,960,490C920,490,880,490,840,490C800,490,760,490,720,490C680,490,640,490,600,490C560,490,520,490,480,490C440,490,400,490,360,490C320,490,280,490,240,490C200,490,160,490,120,490C80,490,40,490,20,490L0,490Z"></path></svg>