<svg
  xmlns="http://www.w3.org/2000/svg"
  width="100"
  height="100"
  viewBox="0 0 48 48"
  fill="none"
>
  <rect width="48" height="48" rx="8" fill="#4479A1" />
  <path
    d="M24 6C15.1634 6 8 9.13401 8 13C8 16.866 15.1634 20 24 20C32.8366 20 40 16.866 40 13C40 9.13401 32.8366 6 24 6ZM8 16V21C8 24.866 15.1634 28 24 28C32.8366 28 40 24.866 40 21V16C40 19.866 32.8366 23 24 23C15.1634 23 8 19.866 8 16ZM8 24V29C8 32.866 15.1634 36 24 36C32.8366 36 40 32.866 40 29V24C40 27.866 32.8366 31 24 31C15.1634 31 8 27.866 8 24Z"
    fill="white"
  />
</svg>
